<svg id="svg" version="1.1" xmlns="http://www.w3.org/2000/svg" xmlns:xlink="http://www.w3.org/1999/xlink" width="400" height="400" viewBox="0, 0, 400,400"><g id="svgg"><path id="path0" d="M0.000 200.000 L 0.000 400.000 200.000 400.000 L 400.000 400.000 400.000 200.000 L 400.000 0.000 200.000 0.000 L 0.000 0.000 0.000 200.000 M303.565 80.413 C 303.724 82.485,298.109 269.868,297.855 270.960 C 297.599 272.065,311.169 271.363,155.425 278.333 C 8.681 284.900,15.544 284.633,14.856 283.803 C 14.417 283.275,29.823 113.422,30.765 108.398 C 31.346 105.304,28.463 103.239,98.660 157.031 C 134.687 184.639,164.537 207.276,164.992 207.336 C 165.623 207.420,181.690 192.539,232.267 145.032 C 268.813 110.704,299.524 81.873,300.514 80.963 C 302.323 79.300,303.464 79.094,303.565 80.413 M233.235 147.155 C 193.552 184.427,165.652 210.352,165.223 210.352 C 164.823 210.352,135.127 187.852,99.231 160.352 C 63.335 132.852,33.750 110.352,33.487 110.352 C 32.887 110.352,16.872 281.093,17.422 281.638 C 17.983 282.195,295.002 269.639,295.384 269.039 C 295.553 268.773,295.699 266.973,295.709 265.039 C 295.718 263.105,296.937 221.709,298.416 173.047 C 299.896 124.385,300.974 84.432,300.813 84.264 C 300.652 84.096,270.242 112.396,233.235 147.155 M92.463 190.431 C 110.489 192.133,123.886 212.342,118.228 229.297 C 110.296 253.064,77.866 258.535,61.990 238.785 C 46.887 219.997,59.118 193.251,84.180 190.263 C 86.848 189.945,87.443 189.957,92.463 190.431 M258.789 193.129 C 282.965 201.354,287.758 231.734,267.094 245.767 C 240.827 263.604,207.206 235.487,221.711 207.813 C 228.319 195.204,245.217 188.512,258.789 193.129 M82.165 193.129 C 62.682 196.852,52.526 215.190,60.547 232.166 C 71.468 255.280,107.862 253.150,115.664 228.940 C 122.219 208.600,103.867 188.982,82.165 193.129 M244.845 194.536 C 227.423 197.293,216.898 213.419,222.029 229.492 C 230.531 256.124,270.106 254.742,276.955 227.574 C 281.624 209.056,264.491 191.428,244.845 194.536 M254.807 207.223 C 267.830 210.615,272.581 224.425,263.868 233.560 C 254.958 242.900,238.016 240.857,232.083 229.726 C 225.402 217.190,239.495 203.235,254.807 207.223 M100.586 209.374 C 109.228 212.704,112.817 223.244,107.725 230.337 C 98.899 242.631,77.936 237.226,77.933 222.656 C 77.930 212.112,89.733 205.192,100.586 209.374 M245.703 209.431 C 236.054 211.025,230.028 220.808,234.069 228.320 C 241.680 242.467,265.627 238.499,265.785 223.066 C 265.879 213.820,256.731 207.609,245.703 209.431 M90.965 210.921 C 78.212 213.242,76.297 229.098,88.224 233.623 C 97.619 237.188,107.613 231.637,107.616 222.852 C 107.619 214.927,99.787 209.315,90.965 210.921 M176.172 225.977 L 176.367 240.039 179.192 240.291 C 188.147 241.091,196.979 245.578,203.660 252.720 C 207.584 256.915,205.352 257.210,200.874 253.088 C 185.162 238.627,163.018 239.268,141.955 254.795 C 139.074 256.919,137.983 257.337,137.643 256.449 C 136.215 252.729,161.968 240.271,171.175 240.228 C 173.394 240.218,173.323 240.620,173.612 226.367 C 173.911 211.668,173.916 211.621,175.131 211.794 C 175.976 211.914,175.977 211.926,176.172 225.977 M97.820 221.721 C 98.588 222.016,98.623 223.188,97.882 223.803 C 97.029 224.511,93.722 224.167,93.204 223.317 C 92.388 221.979,95.599 220.869,97.820 221.721 M253.117 222.250 C 254.544 224.917,253.531 228.998,251.931 227.023 C 251.083 225.975,250.651 223.239,251.179 222.252 C 251.705 221.270,252.592 221.269,253.117 222.250 " stroke="none" fill="#fff" fill-rule="evenodd"></path><path id="path1" d="M300.514 80.963 C 299.524 81.873,268.813 110.704,232.267 145.032 C 181.690 192.539,165.623 207.420,164.992 207.336 C 164.537 207.276,134.687 184.639,98.660 157.031 C 28.463 103.239,31.346 105.304,30.765 108.398 C 29.823 113.422,14.417 283.275,14.856 283.803 C 15.544 284.633,8.681 284.900,155.425 278.333 C 311.169 271.363,297.599 272.065,297.855 270.960 C 298.109 269.868,303.724 82.485,303.565 80.413 C 303.464 79.094,302.323 79.300,300.514 80.963 M298.416 173.047 C 296.937 221.709,295.718 263.105,295.709 265.039 C 295.699 266.973,295.553 268.773,295.384 269.039 C 295.002 269.639,17.983 282.195,17.422 281.638 C 16.872 281.093,32.887 110.352,33.487 110.352 C 33.750 110.352,63.335 132.852,99.231 160.352 C 135.127 187.852,164.823 210.352,165.223 210.352 C 165.652 210.352,193.552 184.427,233.235 147.155 C 270.242 112.396,300.652 84.096,300.813 84.264 C 300.974 84.432,299.896 124.385,298.416 173.047 M84.180 190.263 C 59.118 193.251,46.887 219.997,61.990 238.785 C 77.866 258.535,110.296 253.064,118.228 229.297 C 123.886 212.342,110.489 192.133,92.463 190.431 C 87.443 189.957,86.848 189.945,84.180 190.263 M241.992 192.538 C 217.661 199.174,210.153 226.075,227.935 242.907 C 247.148 261.093,280.027 247.686,280.107 221.633 C 280.165 202.536,260.467 187.499,241.992 192.538 M96.289 193.762 C 124.152 202.406,123.780 239.995,95.759 247.318 C 69.189 254.262,48.295 227.811,62.537 205.260 C 68.753 195.419,84.423 190.080,96.289 193.762 M256.836 195.125 C 281.273 201.649,285.194 234.228,262.891 245.437 C 238.217 257.837,211.793 233.704,223.618 209.570 C 229.363 197.845,243.690 191.615,256.836 195.125 M243.794 207.258 C 233.031 210.153,227.404 220.947,232.083 229.726 C 238.016 240.857,254.958 242.900,263.868 233.560 C 275.816 221.033,261.640 202.459,243.794 207.258 M88.672 208.917 C 78.192 212.404,74.377 223.846,81.140 231.504 C 90.645 242.264,110.156 236.423,110.156 222.817 C 110.156 213.010,98.681 205.586,88.672 208.917 M252.886 209.365 C 269.578 212.099,270.323 232.630,253.870 236.508 C 247.476 238.015,240.208 236.026,236.408 231.729 C 227.021 221.117,237.532 206.851,252.886 209.365 M99.693 211.710 C 109.321 215.313,110.462 228.272,101.552 232.818 C 91.800 237.793,80.251 232.270,80.305 222.656 C 80.355 213.729,90.213 208.164,99.693 211.710 M174.084 212.380 C 173.973 212.768,173.761 219.062,173.612 226.367 C 173.323 240.620,173.394 240.218,171.175 240.228 C 161.968 240.271,136.215 252.729,137.643 256.449 C 137.983 257.337,139.074 256.919,141.955 254.795 C 163.018 239.268,185.162 238.627,200.874 253.088 C 205.352 257.210,207.584 256.915,203.660 252.720 C 196.979 245.578,188.147 241.091,179.192 240.291 L 176.367 240.039 176.172 225.977 C 175.977 211.926,175.976 211.914,175.131 211.794 C 174.583 211.715,174.215 211.921,174.084 212.380 M93.532 222.047 C 92.288 222.971,93.243 223.998,95.481 224.144 C 97.452 224.272,98.438 223.774,98.438 222.650 C 98.438 221.407,94.968 220.981,93.532 222.047 M251.179 222.252 C 250.651 223.239,251.083 225.975,251.931 227.023 C 253.531 228.998,254.544 224.917,253.117 222.250 C 252.592 221.269,251.705 221.270,251.179 222.252 " stroke="none" fill="#000000" fill-rule="evenodd"></path></g></svg>